<?xml version="1.0" encoding="UTF-8"?><svg id="Layer_1" xmlns="http://www.w3.org/2000/svg" viewBox="0 0 125 125"><defs><style>.cls-1{fill:#1bb050;stroke-width:0px;}</style></defs><path class="cls-1" d="M76.26,54.96c-.04-.28-.2-.53-.44-.68-.24-.15-.53-.19-.8-.1l-2.77.86c-1.85-.4-4.93-1.77-4.96-1.79-4.61-2.06-7.37-.32-7.48-.25-.19.11-.35.23-.52.34-1.32-.2-3.95-.29-6.73,1.27l-2.72-.48c-.26-.05-.52.02-.73.17-.21.15-.35.39-.39.64l-1.48,10.54c-.04.27.04.55.22.76.18.21.44.33.71.34l3.31.07,4.28,3.3,2.59,2.21c.44.38,1,.58,1.58.58.61,0,1.2-.23,1.65-.64.22-.2.39-.44.52-.7.32.16.68.26,1.05.26.59,0,1.16-.22,1.59-.62.21-.19.37-.42.49-.67.21.06.42.09.63.09.54,0,1.07-.18,1.49-.52.26-.21.47-.47.63-.76.3.13.62.2.96.2.59,0,1.15-.21,1.59-.59.46-.4.74-.97.8-1.57l1.96-.57,3.5-.08c.27,0,.53-.13.71-.34.18-.21.26-.49.22-.76l-1.48-10.54ZM60.84,54.64c.07-.04,1.33-.8,3.65-.3-1.25,1.81-2.25,3.1-2.68,3.44-.02.02-.03.04-.05.06-.02.02-.04.03-.06.05-.01.01-1.12,1.17-2.3,1.17h-.04c-.53-.01-1.02-.28-1.49-.82-.07-.29-.17-1.67,2.98-3.6ZM69.28,67.37c-.19.17-.48.16-.66-.02l-4.07-3.97-1-.99c-.38-.37-.99-.37-1.36.01-.37.38-.37.99.01,1.36l.96.94h0s0,0,0,0l3.06,3.02c.1.1.15.23.14.38,0,.14-.07.27-.19.36-.19.15-.47.14-.65-.04l-3.81-3.75-.65-.64c-.38-.37-.99-.37-1.36.01-.37.38-.37.99.01,1.36l.59.58s0,0,0,0l.49.48,2.64,2.6c.08.08.12.18.12.29,0,.11-.05.21-.13.29-.15.14-.39.14-.55,0l-3.79-3.49-.13-.13c-.19-.18-.43-.26-.69-.26-.26,0-.49.12-.67.3-.36.39-.34,1,.04,1.36l.11.1s0,0,0,0h0s2.54,2.38,2.54,2.38c.11.1.17.24.16.38,0,.15-.06.28-.17.38-.19.18-.49.18-.69.01l-2.6-2.22s-.02,0-.02-.01c0,0,0-.01-.02-.02l-4.55-3.5s-.07-.03-.1-.05c-.06-.03-.11-.06-.17-.09-.06-.02-.11-.03-.17-.04-.04,0-.08-.03-.12-.03l-2.55-.06,1.19-8.48,2.06.36s.02,0,.04,0c.04,0,.09.02.13.02.06,0,.12-.01.18-.02.02,0,.03,0,.05,0,.09-.02.19-.06.27-.11,1.42-.87,2.79-1.18,3.92-1.26-1.94,2.25-1.01,3.95-.96,4.03.03.05.06.09.09.13.86,1.05,1.88,1.6,3.03,1.63,1.28.04,2.41-.64,3.06-1.13l6.94,6.8c.1.1.15.23.15.36s-.06.26-.17.35ZM73.14,64.75s-.09.02-.13.03c-.04,0-.08,0-.11,0l-2.13.62s-.07-.09-.11-.13l-6.89-6.75c.66-.76,1.54-1.95,2.63-3.56.04.02.08.03.12.05.15.06,3.58,1.6,5.63,1.97.01,0,.03,0,.04,0,.07.01.15,0,.22,0,.05,0,.1,0,.15-.02.02,0,.03,0,.05,0l1.92-.6,1.17,8.34-2.55.06Z"/></svg>